HIERARCHY
ROOT Hips
{
	OFFSET	0.000000	0.000000	0.000000
	CHANNELS 6 Xposition Yposition Zposition Zrotation Xrotation Yrotation
	JOINT LeftHip
	{
		OFFSET	4.740440	-3.195970	-0.322709
		CHANNELS 3 Zrotation Xrotation Yrotation
		JOINT LeftKnee
		{
			OFFSET	-1.605680	-15.592300	1.005510
			CHANNELS 3 Zrotation Xrotation Yrotation
			JOINT LeftAnkle
			{
				OFFSET	-0.632401	-16.421000	-1.413730
				CHANNELS 3 Zrotation Xrotation Yrotation
				End Site
				{
					OFFSET	0.008423	-2.933000	-1.776750
				}
			}
		}
	}
	JOINT RightHip
	{
		OFFSET	-4.740440	-3.195970	-0.322709
		CHANNELS 3 Zrotation Xrotation Yrotation
		JOINT RightKnee
		{
			OFFSET	1.605680	-15.592300	1.005510
			CHANNELS 3 Zrotation Xrotation Yrotation
			JOINT RightAnkle
			{
				OFFSET	0.632401	-16.421000	-1.413730
				CHANNELS 3 Zrotation Xrotation Yrotation
				End Site
				{
					OFFSET	-0.008423	-2.933000	-1.776750
				}
			}
		}
	}
	JOINT Chest
	{
		OFFSET	0.000000	3.468200	0.078401
		CHANNELS 3 Zrotation Xrotation Yrotation
		JOINT LeftCollar
		{
			OFFSET	3.857650	15.070700	-0.011583
			CHANNELS 3 Zrotation Xrotation Yrotation
			JOINT LeftShoulder
			{
				OFFSET	3.979720	-1.940530	-0.165223
				CHANNELS 3 Zrotation Xrotation Yrotation
				JOINT LeftElbow
				{
					OFFSET	0.615844	-10.986600	-0.673886
					CHANNELS 3 Zrotation Xrotation Yrotation
					JOINT LeftWrist
					{
						OFFSET	0.826843	-10.854500	1.034220
						CHANNELS 3 Zrotation Xrotation Yrotation
						End Site
						{
							OFFSET	-1.679080	-8.456540	0.936217
						}
					}
				}
			}
		}
		JOINT RightCollar
		{
			OFFSET	-3.857650	15.070700	-0.011583
			CHANNELS 3 Zrotation Xrotation Yrotation
			JOINT RightShoulder
			{
				OFFSET	-3.979720	-1.940530	-0.165223
				CHANNELS 3 Zrotation Xrotation Yrotation
				JOINT RightElbow
				{
					OFFSET	-0.615845	-10.986600	-0.673886
					CHANNELS 3 Zrotation Xrotation Yrotation
					JOINT RightWrist
					{
						OFFSET	-0.826843	-10.854500	1.034220
						CHANNELS 3 Zrotation Xrotation Yrotation
						End Site
						{
							OFFSET	1.679080	-8.456540	0.936217
						}
					}
				}
			}
		}
		JOINT Neck
		{
			OFFSET	0.000000	15.101400	0.055730
			CHANNELS 3 Zrotation Xrotation Yrotation
			JOINT Head
			{
				OFFSET	0.000000	4.185120	1.488260
				CHANNELS 3 Zrotation Xrotation Yrotation
				End Site
				{
					OFFSET	0.000000	7.773420	-0.106016
				}
			}
		}
	}
}
MOTION
Frames:    8
Frame Time: 0.016667
-10.542055	37.534149	8.326826	-2.674374	-6.793579	-54.646286	-4.027579	2.713748	6.576230	-5.089261	6.886456	6.677018	6.167302	-6.454069	6.432645	-12.708947	-10.892420	-9.146667	0.577602	22.840240	-1.774871	4.120271	-5.558847	5.972791	-0.584568	17.487505	4.051847	-8.449555	-5.388579	-6.572084	3.295811	-18.377493	0.629347	49.211670	-143.286072	81.603821	9.266131	-24.586050	8.970876	-8.268085	-0.411320	-6.863829	-25.787973	-13.809503	4.124861	-65.957497	-124.058556	-64.645401	-6.659628	-23.081245	10.489329	-0.044169	14.212031	-3.610465	-0.494568	13.648589	-9.307039	
-10.572681	37.543282	8.316473	-2.425515	-6.678237	-54.266460	-4.045349	2.544577	6.466228	-5.032442	6.699460	6.452252	6.128157	-6.316660	6.369306	-12.834292	-10.995722	-9.542722	0.623587	22.670052	-1.800743	4.089277	-5.469738	5.968262	-0.694901	17.482555	4.090402	-8.282991	-5.173618	-6.515282	3.056556	-18.312269	0.456464	49.697186	-143.299149	81.886322	9.601754	-24.681078	9.186223	-7.966983	0.085127	-6.178148	-27.538046	-12.743297	3.574526	-68.565384	-124.644913	-63.596760	-6.348280	-26.033154	10.692780	0.132591	14.428056	-3.636138	-0.316574	13.815454	-9.801128	
-10.572891	37.553886	8.287426	-2.335219	-6.615803	-54.111877	-4.032995	2.478900	6.428046	-4.971930	6.527806	6.341682	6.084075	-6.163822	6.339654	-12.819777	-11.020555	-9.681452	0.592538	22.590288	-1.823322	4.089082	-5.447047	5.968519	-0.734995	17.533119	4.214040	-8.223463	-5.162627	-6.582203	3.016806	-18.262110	0.410489	49.855194	-143.333282	82.025887	9.721045	-24.743361	9.245690	-7.854576	0.242143	-6.151556	-28.184977	-11.916587	3.381529	-68.956604	-123.831573	-62.236629	-5.772709	-27.599119	11.339712	0.249804	14.510436	-3.661944	-0.227657	13.823541	-10.058826	
-10.597164	37.564079	8.269201	-2.105747	-6.433752	-53.525040	-3.951991	2.204385	6.484985	-4.916788	6.505015	5.804091	6.058516	-6.067931	6.224685	-12.806339	-11.107651	-10.010015	0.635162	22.480249	-2.066915	4.050529	-5.437420	5.905043	-0.713049	17.907568	4.554222	-8.154486	-5.102145	-6.515539	2.922004	-18.350172	0.058991	50.257214	-143.436035	82.346596	10.084988	-24.815403	9.634238	-7.766399	0.727352	-6.568351	-29.489988	-8.805605	1.942604	-71.655090	-119.194618	-59.117577	-6.905778	-33.257698	11.409710	0.580462	14.671493	-3.648121	0.022127	13.776327	-10.869021	
-10.602513	37.569000	8.260671	-2.026818	-6.379903	-53.273605	-3.948328	2.135172	6.539083	-4.863506	6.450092	5.557587	6.040949	-6.001607	6.157034	-12.806319	-11.129577	-10.153096	0.622735	22.447512	-2.133165	4.053106	-5.435092	5.856151	-0.770288	18.233959	4.975276	-8.140407	-5.102689	-6.636479	2.899234	-18.512444	-0.226879	50.368504	-143.484100	82.439095	10.219130	-24.836449	9.759976	-7.773238	0.794787	-7.190589	-29.584848	-7.731940	1.073990	-79.573883	-113.515892	-64.197144	-8.633864	-35.896385	9.779552	0.687638	14.904183	-3.602060	0.325904	13.345345	-11.394049	
-10.623095	37.584427	8.230270	-1.688844	-6.176470	-52.413490	-3.964876	1.860661	6.822588	-4.685142	6.216172	4.655667	5.983483	-5.755232	5.884371	-12.870615	-11.272642	-10.510880	0.672199	22.342470	-2.523565	4.061704	-5.427139	5.694476	-0.743804	18.254084	4.789698	-8.033992	-5.101990	-6.734019	3.128618	-18.196030	0.214092	50.707294	-143.358383	82.489258	10.787916	-24.900934	10.180079	-7.888180	1.784004	-8.104102	-28.937210	-5.156482	-2.300071	-88.366142	-109.354546	-71.448555	-9.455531	-35.927460	9.200605	0.793785	15.149534	-3.475855	0.492059	13.311756	-11.416300	
-10.613514	37.595806	8.203279	-1.565692	-6.081518	-52.110344	-3.964691	1.772535	6.966853	-4.601427	6.007986	4.395859	5.946179	-5.577338	5.671041	-12.882650	-11.323983	-10.604129	0.708108	22.287886	-2.689517	4.065367	-5.423216	5.626511	-0.770642	18.259724	4.815682	-7.917547	-4.901912	-6.531160	3.097965	-18.292688	0.039501	50.856918	-143.040710	82.435036	10.233610	-25.174736	10.480143	-7.827534	2.007026	-8.543462	-28.604309	-4.469097	-3.738522	-97.985237	-107.126633	-81.340530	-9.482183	-34.870331	9.577357	0.793777	15.748488	-2.614559	0.831063	12.752736	-12.246028	
-10.671780	37.617668	8.199926	-1.323471	-5.857456	-51.246956	-3.894564	1.685965	7.462204	-4.468691	5.735312	3.195051	5.908019	-5.393847	5.475454	-12.887646	-11.305195	-10.745739	0.867712	22.084459	-3.312390	4.073913	-5.415668	5.464095	-0.773367	18.369226	4.845926	-7.710532	-4.951234	-6.905930	3.275698	-17.835573	0.445682	50.688244	-143.463379	82.240143	10.682441	-25.208210	10.628715	-7.494287	2.275580	-9.721117	-27.302176	-3.172171	-8.149399	38.708088	-73.904984	50.109367	-9.563611	-27.559763	10.972436	1.162866	15.623368	-2.744894	0.594646	13.072356	-11.847392	
